<svg xmlns="http://www.w3.org/2000/svg" height="800" width="1200" viewBox="-15 -10.5935 130 63.561"><path d="M0 42.374h100V.001L0 0v42.373z" fill="#ff0"/><path d="M89.016 22.79c.2101-.3619.2101-.8016.2867-.9745.1125-.1903.5335-.1532.5335-.2866 0-.0556-.3051-.1321-.421-.2088-.2263-.1335-.1496-.8214-.2646-.8214-.174 0-.3457.4768-.5185.268-.304-.3828-1.5661-1.109-2.138-1.319-.2113-.0767.153-.7066.0578-.7658-.0961-.0567-.3445.384-.7075.3074-.2861-.0569-.1538-.5737-.3061-.5737-.0767 0-.3644.7262-.5743.6683a29.6114 29.6114 0 01-.5326-.1392v-1.9039c0-.3247-.218-.5766-.4987-.5743h-2.064c-.573 0-.5347-.4199-.5347-.5162 0-2.5407 3.6882-2.9608 3.6882-6.2846 0-1.4524-.9166-2.427-1.9864-3.2878-.059-.0371 0 .2111 0 .3063 0 1.5475-5.752 2.3504-5.752 5.9236 0 3.1126 3.0965 3.246 3.0965 3.7252 0 .0952-.1904.1334-.21.1334h-2.369c-.2483 0-.464.1532-.4606.5697l.0023 1.9142c-.2309.0765-.5349-.268-.689-.268-.0766 0-.0372.5928-.1718.6706-.115.0556-2.2728.8202-2.4664.8398-.3028.057-.2262-.478-.398-.478-.1555 0-.1555.535-.5372.535-.2284 0-.4187-.2112-.5904-.2112-.1148 0 .247.441.247.5732 0 .3641-.7052.4964-.7052.7458 0 .1334.667-.0567.7633-.0567.3434 0 .3063.4026.4374.4026.1346 0 .2296-.4618.3457-.536.2273-.1335.4965.0952.6114.0952.1902 0-.1532-.4595.0197-.536 0 0 2.3284-.992 2.4827-.9166.1334.0777.1159.3063.268.3828.1519.0756.3828-.5347.3828-.1542v4.6823c-.2692.1694-.8423.268-1.1486.268-.1508 0-.0765-.4977-.1717-.4977-.153 0-.3063.4199-.5347.4199-.21 0-.5151-.515-.724-.515-.1333 0 .246.6484.0174.7634-.8806.4408-2.2737.8607-2.2737 2.2529 0 .2887.1542.6344.0939.7261-.0545.1358-.3596.4027-.3423.5174 0 .1149.5732.0754.6891.2495.0558.0928.0952.5139.2113.5139.0927 0 .341-.3236.5534-.21.667.4027 1.8318.84 2.3689 1.13.131.0765.0557.4955.131.5338.1543.0765.4583-.4015.9386-.1346.0963.0394.1915.1924.1915.364l-.0023 1.5629c0 .2867.1322.362.2864.4003l5.6964 1.1334s.5059.1136.6776.1136c.1984.008.4443-.001.4303-.4803l-.0023-3.5513c0-.036.0454-.1228.1219-.1228.3341-.001.166.9629.2413.9629.1519 0 .2482-.6497.4408-.6497.267 0 .4409.2482.5522.1915.0964-.0568-.0546-.3644-.0546-.5559 0-.1705.4944-.247 1.107-.4768.5346-.189.9744-.4001 1.1472-.4001.1323 0 .2263.3618.3434.3618.0952 0 .1139-.4756.325-.4756.1705 0 .5522.2657.6496.1892.0754-.0558-.1915-.42.0173-.5743.1544-.0951.5163-.3225.5163-.4188 0-.0568-.7064-.0776-.7447-.0776-.1334-.0371-.2867-.4573-.3841-.4573-.1102 0-.1102.4202-.2842.5534-.1542.1139-.5349-.4013-.7054-.4013-.0973 0 .1126.3828.1126.6903 0 .304-1.8516.8968-2.0999.8968-.3828 0-.4024-.478-.479-.478-.1149 0-.1114.5835-.5336.5835-.2112 0-.2867-.1577-.2867-.2715v-4.5871c0-.1312.0382-.3098.2867-.3202.3143-.014.3224.6972.4372.6972.2101 0 .326-.7066.7264-.7066.3062 0 .5545.4213.746.4213.1332 0-.2286-.4397-.2286-.6509 0-.2099 1.891-.1334 2.6172-1.4143m-11.999 7.0324c-.3052 0-.4965-.6125-.573-.5916-.0952.0196.0208.5151-.0952.5916-.0951.094-2.1208-.8411-2.274-.9919-.1346-.1346.0581-.3249 0-.4593-.0382-.115-.3457-.0778-.4383-.1357-.0779-.0756.0926-.4213-.0187-.4955-.0986-.058-.3063.3445-.4408.151-.0593-.0768-.0754-.209-.0754-.3807 0-1.166 1.24-1.6427 2.0825-1.9291.3422-.116.2261.3235.3422.3433.1335.0382.153-.21.3063-.21.116 0 .5557.21.6497.1335.0765-.0569-.2286-.3434-.1334-.4584.1159-.095 1.0023-.262.9942-.0348l.0023 4.0826c0 .428-.3284.3851-.3284.3851m2.1611-16.489c0-2.6372 3.898-4.1465 4.1647-5.484.2867.268.325.7065.325 1.0893 0 1.6044-2.789 4.2984-2.789 6.2473 0 .2111.0186.2669.0186.4013 0 .1903-.0765.2298-.1138.2298-.4605 0-1.6055-.899-1.6055-2.4838m3.9363 19.181c0 .4026-.1358.4964-.478.421l-3.6485-.726c-.2111-.0371-.3261-.1717-.3261-.4003v-6.6104c0-.1717.593-.1915.6881-.115.1729.1533.1148.7066.2284.7066.1544 0 .5545-.6695.7276-.6695.363 0 .61.2101.6868.173.0776-.0396.0776-.3447.1717-.4212.1334-.0927.5346-.0927.7446-.116.346-.0186.9758-.0753.9758-.0753.2482 0 .2297.174.2297.537v7.2962zm-2.0836-8.236c-.115-.188-.0581-.5138-.1717-.5138-.057 0-.362.4593-.536.4593-.1706 0-.457-.326-.572-.326-.0766 0 .0766.4594-.0766.6486-.0963.1346-1.0129.2332-1.0129.117v-6.4966c0-.3052.231-.42.4386-.42l3.42-.001c.419 0 .5919.1323.5919.5719l.0035 5.831c0 .1903-2.0094.2668-2.0848.1299m5.2345-.666c-.1335-.0579-.151-.4768-.2275-.4768-.116 0-.1752.3807-.4001.4374-.232.0394-.5743-.247-.6718-.1729-.0963.079.2157.6207-.2994.6207-.1542 0-.2332-.1752-.2332-.3086v-4.1638s.0175-.006.2484.0511c.152.0394.305.1148.305.326 0 .1126-.0406.3423.0373.3817.08.0394.1332-.0394.1728-.058.7053-.5152.8781.4002 1.0302.4002.1346 0 .116-.6289.3063-.6289.1542-.059 1.6241.6485 1.6241 1.108 0 .0952-.1924.1125-.2088.21-.0184.1346.3434.1901.2854.4397-.0208.1542-.363.3445-.269.4386.0984.096.5568-.094.595-.094.0952 0 .1125.1507.1125.2088 0 .8423-1.9664 1.4734-2.4072 1.2807M58.773 14.678h-.0313l-1.4236-4.4966h-2.0627l2.4549 6.9017v4.9073h2.029V17.083l2.4526-6.9017h-2.0605L58.773 14.678m-7.9971 7.3124h2.029v-10.043h1.963v-1.7658h-5.955v1.7658h1.9629v10.043m-6.4481-9.0455c0-.7368.3597-1.1627 1.014-1.1627.4581 0 .9976.2959 1.0802 1.3099l1.9304-.2123c-.1798-1.6695-1.1625-2.8633-2.8145-2.8633-1.9956 0-3.1394 1.0627-3.1394 2.9443 0 3.3876 4.1207 4.0083 4.1207 6.3461 0 .704-.4744 1.08-1.1775 1.08-.6543 0-1.1288-.5882-1.2111-1.783l-1.9305.2772c.0822 1.7681 1.1613 3.2716 3.044 3.2716 1.8969 0 3.2056-1.079 3.2056-3.0246 0-3.2054-4.1221-4.1707-4.1221-6.1834m-2.7118 7.2791h-3.6313v-3.4667h2.616v-1.7667h-2.616v-3.043h3.4038v-1.7659h-5.433v11.81h5.6605v-1.768m-9.3522-3.2873h-.0337l-2.4687-6.7542h-1.8818v11.809h1.832v-7.3762h.0324l2.5847 7.3762h1.767V10.182h-1.8319v6.7542m-12.723-4.1702h.0325l1.8319 9.2255h.9827l1.8329-9.2255h.0302v9.2255h1.768v-11.809h-2.667l-1.4397 6.9017h-.0325l-1.4386-6.9017h-2.6661v11.809h1.7656V12.766m-7.4574-2.584L9.9078 21.991h1.963l.3597-2.6174h2.2239l.3596 2.6173h1.9641l-2.1763-11.809h-2.5186zm.4408 7.4261l.8016-5.071h.0325l.8017 5.071h-1.6358M58.713 32.202v-7.1162h1.2228v6.0512h1.9211v1.065h-3.144m-3.1664-2.6418h.985l-.4826-3.0557h-.0196l-.4828 3.0557zm-.3943 2.6416h-1.1835l1.3112-7.1162h1.5185l1.3109 7.1162H56.926l-.2171-1.5766h-1.34l-.2168 1.5766m-5.62.0003v-7.1162h1.1333l1.4885 4.0698h.0198v-4.0698h1.1044v7.1162h-1.065l-1.558-4.4457h-.0186v4.4457H49.532m-3.3502-1.7547c0 .2704.0465.4687.1382.5964.0927.1286.2632.1925.5128.1925.2493 0 .4199-.0638.5128-.1925.0915-.1277.138-.326.138-.5964v-3.6068c0-.2703-.0465-.4688-.138-.5964-.0929-.1288-.2634-.1925-.5128-.1925-.2496 0-.4201.0637-.5128.1925-.0917.1276-.1382.326-.1382.5964zm-1.2215-3.637c0-.2496.037-.4863.1124-.71.0754-.2229.1904-.4176.3457-.5813.1544-.1648.348-.2936.5813-.3897.2332-.0951.5105-.1429.833-.1429s.5998.0477.833.1429c.2332.096.4268.225.5812.3897.1542.1637.2692.3584.3446.5812.0753.2238.1136.4605.1136.71v3.6672c0 .2493-.0383.486-.1136.7089-.0754.2238-.1904.4176-.3446.5824-.1544.1636-.348.2934-.5812.3886-.2332.095-.5105.1438-.833.1438-.3226 0-.5998-.0487-.833-.1438-.2332-.0952-.4269-.225-.5813-.3886-.1553-.1648-.2703-.3586-.3457-.5824-.0753-.2229-.1124-.4596-.1124-.709v-3.667m-2.1986 5.3912h1.2217v-7.1162h-1.2217zm-3.1714-6.0517H38.407v-1.0652h3.5883v1.0652h-1.1821v6.0525h-1.2228v-6.0525m-3.657 3.4102h.985l-.4825-3.0557h-.0196l-.4828 3.0557zm-.3943 2.6416h-1.1834l1.3111-7.1162h1.5185l1.3109 7.1162H37.313l-.217-1.5766h-1.34l-.2168 1.5766m-5.6084.0003v-7.1162h1.1334l1.4885 4.0698h.0196v-4.0698h1.1046v7.1162h-1.0652l-1.558-4.4457h-.0187v4.4457h-1.1044m-3.6154-3.9232h.4338c.1636 0 .304-.0162.419-.0487.1147-.0336.2087-.0917.2807-.1775.0719-.0859.1253-.1984.1578-.34.0325-.1414.0498-.3177.0498-.5278 0-.42-.0696-.7076-.2077-.862-.138-.1542-.3712-.232-.6996-.232h-.4338v2.188zm.0862 3.9237h-1.2217v-7.1173h1.7149c.6833 0 1.1996.1613 1.5475.4837.348.3215.522.8608.522 1.616 0 .289-.0244.536-.073.739-.0499.2043-.116.377-.1973.5175-.0823.1415-.1752.2553-.2761.3399-.1021.086-.2054.152-.311.1984l1.0349 3.223h-1.2413l-.8677-2.948c-.079.0138-.1765.0221-.2913.0244a7.7712 7.7712 0 01-.34.006v2.9177m-5.4206-.0003v-7.1162h3.2726v1.0638h-2.051v1.8342H23.78v1.0638h-1.5778v2.0894h2.1891v1.065h-3.4107m-3.0003-6.052H16.797v-1.0652h3.5882v1.0652h-1.182v6.0525h-1.2229v-6.0525m-5.5135 6.052v-7.1162h1.1335l1.4884 4.0698h.0198v-4.0698h1.1044v7.1162h-1.065l-1.558-4.4457h-.0186v4.4457h-1.1045m-2.294-.0003h1.2216V25.086h-1.2217z" fill="#040606"/></svg>