<svg xmlns="http://www.w3.org/2000/svg" height="800" width="1200" viewBox="-30 -57.839 260 347.034"><defs><clipPath id="a"><path d="M20.56 39.172h67.196v71.866H20.56z"/></clipPath></defs><g clip-path="url(#a)" transform="matrix(3.89856 0 0 -3.89856 -133.908 404.207)"><path d="M59.998 103.481c9.463 0 17.181-7.72 17.181-17.182S69.461 69.12 60 69.12c-9.464 0-17.182 7.718-17.182 17.18s7.718 17.182 17.181 17.182" fill="#fff"/><path d="M59.998 103.481c9.463 0 17.181-7.72 17.181-17.182S69.461 69.12 60 69.12c-9.464 0-17.182 7.718-17.182 17.18s7.718 17.182 17.181 17.182z" fill="none" stroke="#231f20" stroke-width=".4" stroke-miterlimit="2.613"/><path d="M71.62 81.122l-1.161-2.096.465-.258.864 1.56 2.673-1.491.296.536zm.976 3.456l-.092-.63.822-.532-.398-1.343-.971-.061-.221-.612 3.853.263.18.627zm2.506-2.422l-.001-.01-.002-.005-1.677-.041.306 1.028zm-2.463 5.525l.031-.585 2.598.142v-.015l-2.594-1.716-.033-.65 3.535-.296.061.662-2.653.177v.037l2.681 1.733-.046.693zm2.631 2.756c.201-.708-.376-1.246-1.028-1.413-.651-.168-1.354-.058-1.546.652-.195.726.372 1.236 1.015 1.434.641.194 1.355.049 1.559-.673zm.483.156c-.284 1.006-1.264 1.423-2.222 1.102-.949-.32-1.59-1.153-1.314-2.165.271-.987 1.227-1.33 2.192-1.071.977.266 1.627 1.136 1.344 2.134zm-4.42 1.448l.26-.556 3.236 1.53-.259.556zm.948 4.085l.579-.843-2.493-1.67.334-.514 2.494 1.667.631-.921.456.264-1.581 2.343zm-4.423.162l.495-.414.886.466.986-1.001-.429-.972.407-.507 1.586 3.659-.477.457zm3.272 1.032l.008-.007.003-.002-.715-1.522-.748.779zm-5.87.558l.539-.254 1.205 2.268.014-.008.191-3.113.507-.374L69.63 99.4l-.488.383-1.425-2.222-.182 3.178-.597.294zm-3.057.955l.56-.125.398 1.402.905-.25c.543-.15.555-.466.378-1.082-.048-.166-.1-.365-.052-.537l.619-.254c-.09.173-.027.636.085 1.028.153.533-.065.768-.262.855l.004.009c.118.005.58.042.764.689.164.57-.079 1.075-.818 1.279l-1.621.449zm1.413 2.813l.97-.263c.307-.084.527-.3.403-.73-.103-.354-.322-.475-.695-.372l-1.004.276zm-4.311-2.658l2.558-.093.009.529-1.944.083.033 1.074 1.767-.042.007.5-1.765.044.015.954 1.894-.094.009.53-2.505.105zm-3.32 2.515l1.046.175.461-2.897.606.096-.461 2.906 1.091.19-.057.558-2.834-.482zm-1.932-3.964l.511.249-1.038 2.375.014.005 2.371-1.82.616.183-1.086 3.395-.582-.17.785-2.531-.03-.002-2.406 1.88-.593-.3zm-1.005-.604l.52.324-1.881 3.035-.52-.326zm-3.537-3.432l1.628 1.92-.368.38-1.242-1.49-.805.71 1.105 1.35-.348.348-1.15-1.352-.702.637 1.238 1.412-.379.4-1.642-1.946zm-3.991-1.015l.521.99 2.554-1.587.289.54-2.542 1.587.547.997-.444.274-1.419-2.58zm2.441-2.175l.21.577-3.355 1.249-.21-.578zm-.682-3.952l.024.557-2.656.24 2.75.69.05.5-2.541 1.516 2.744-.531.14.545-3.532.697-.168-.822 2.573-1.525-.002-.01-2.893-.64-.042-.938zm-2.957-2.117c-.084.754.511 1.093 1.177 1.165.677.074 1.379-.164 1.475-.908.095-.754-.546-1.104-1.211-1.207-.663-.105-1.356.204-1.441.95zm-.506-.078c.122-1.041 1.081-1.635 2.069-1.478.989.155 1.726.842 1.583 1.89-.142 1.04-.997 1.472-1.987 1.413-.998-.061-1.787-.777-1.665-1.825zm1.689-2.202a1.439 1.439 0 01-.602-1.881c.455-1.005 1.501-1.27 2.415-.861.916.408 1.448 1.306 1.006 2.259-.335.722-1.059 1.05-1.868.796l.197-.546c.486.163 1.003 0 1.223-.496.306-.686-.235-1.201-.849-1.473-.615-.274-1.33-.184-1.635.503-.208.466-.019.846.305 1.104m22.284-9.302l2.078 1.425-.297.445-1.57-1.091-.59.872 1.425 1.009-.282.42-1.425-1.009-.53.819 1.556 1.074-.299.443-2.062-1.405m-.675-4.207l.636.233-.21 3.852-.56-.252.203-3.021-.009-.005-1.863 2.417-.597-.176m-2.144-3.888l2.502.3-.109.513-1.874-.211-.13 1.072 1.641.198-.099.492-1.624-.194-.11.97 1.813.184-.098.525-2.32-.278m-7.293-2.03l2.371-.885.136.51-1.756.659.356 1.01 1.579-.608.127.482-1.544.595.323.93 1.689-.681.136.498-2.198.869m-1.17-1.302l-1.249.79-.26-.38.81-.518c-.34-.479-.882-.596-1.4-.229-.62.44-.502 1.182-.127 1.73.376.55.994.885 1.616.452.367-.255.57-.68.36-1.09l.522-.299c.364.7.034 1.357-.602 1.798-.87.608-1.846.311-2.404-.507-.558-.818-.516-1.887.353-2.492.356-.247.686-.295 1.167-.18l-.083-.502.326-.192m4.283-1.606l.587-.126.467 2.609.014-.001 1.409-2.843.659-.033.167 3.576-.55.014-.111-2.623-.01.002-1.401 2.821-.624.128" fill="#231f20"/><path d="M59.998 98.092c6.494 0 11.793-5.3 11.793-11.793 0-6.493-5.299-11.792-11.793-11.792-6.497 0-11.792 5.299-11.792 11.792 0 6.494 5.295 11.793 11.792 11.793z" fill="none" stroke="#231f20" stroke-width=".4" stroke-miterlimit="2.613"/><path d="M57.498 88.8v6.007h5V88.8h6.007v-5.004h-6.006v-6.005h-5.001v6.005H51.49V88.8" fill="#ee2722"/><path d="M34.348 44.722h2.151v16.165h-2.151zM51.486 56.02c-.452 2.285-2.287 3.44-4.528 3.44-3.85 0-5.48-3.169-5.48-6.543 0-3.69 1.63-6.769 5.502-6.769 2.83 0 4.46 1.992 4.665 4.664h2.15c-.407-4.03-2.92-6.475-6.996-6.475-5.025 0-7.471 3.713-7.471 8.422 0 4.686 2.672 8.513 7.652 8.513 3.374 0 6.159-1.812 6.657-5.253m2.829-11.297h2.15v6.905h5.254c2.082 0 2.468-1.336 2.693-2.92.317-1.585-.022-3.33.589-3.985h2.4c-.905 1.109-.815 2.875-.95 4.46-.16 1.585-.544 2.966-2.423 3.328v.046c1.947.543 2.808 2.15 2.808 4.097 0 2.582-1.88 4.234-4.913 4.234h-7.608zm2.15 8.717v5.637h5.344c2.015 0 2.875-1.177 2.875-2.762 0-2.355-1.72-2.875-3.735-2.875m20.24 2.581c-.453 2.285-2.287 3.44-4.529 3.44-3.849 0-5.478-3.169-5.478-6.543 0-3.69 1.629-6.769 5.501-6.769 2.83 0 4.46 1.992 4.664 4.664h2.151c-.407-4.03-2.92-6.475-6.996-6.475-5.026 0-7.471 3.713-7.471 8.422 0 4.686 2.672 8.513 7.652 8.513 3.374 0 6.158-1.812 6.657-5.253" fill="#231f20"/></g></svg>